<svg width="145" height="20" viewBox="0 0 145 20" fill="none" xmlns="http://www.w3.org/2000/svg">
<path d="M4.9834 13.1533H9.05469V16H3.08203L0.235352 13.1533V4.5918L3.08203 1.74512H4.9834V13.1533ZM7.49707 8.09375H14.0176V16H9.80664V10.9189H7.49707V8.09375ZM5.73535 4.5918V1.74512H11.5254L14.0176 4.5918V6.02051H9.26953V4.5918H5.73535ZM23.707 16V7.43848H16.9502V6.02051L18.3789 4.5918H25.501L28.3477 7.43848V16H23.707ZM22.9551 9.36133V11.3379H20.5059V13.3359H22.9551V14.5928L21.5371 16H17.9062L15.9941 14.1201V11.2627L17.9062 9.36133H22.9551ZM30.6572 16V4.5918H35.416V16H30.6572ZM38.1016 7.43848H36.168V6.0957L37.6611 4.5918H41.335L42.8604 6.11719V16H38.1016V7.43848ZM45.5459 7.43848H43.6123V6.11719L45.0732 4.5918H47.9736L50.2939 6.93359V16H45.5459V7.43848ZM57.1045 16H55.2031L52.3564 13.1533V7.43848L55.2031 4.5918H57.1045V16ZM57.8564 11.4238V9.43652H60.3594V7.43848H57.8564V4.5918H61.8848L64.7314 7.43848V11.4238H57.8564ZM57.8564 16V13.3359H64.2373V14.5713L62.8193 16H57.8564ZM81.6182 4.5918H78.0947V1.74512H83.6055L86.4629 4.5918V7.49219L85.0342 8.9209L86.4629 10.3496V13.1533L83.6055 16H78.0947V13.1533H81.6182V10.1133H78.0947V7.63184H81.6182V4.5918ZM72.5947 1.74512H77.3428V16H72.5947V1.74512ZM100.793 4.5918V16H96.0449V4.5918H100.793ZM93.1768 13.1533H95.293V14.5713L93.918 16H91.2861L88.4287 13.1533V4.5918H93.1768V13.1533ZM115.467 0.241211V16H110.719V0.241211H115.467ZM107.679 13.3359H109.967V14.8721L108.839 16H105.498L102.931 13.4326V7.15918L105.498 4.5918H109.967V7.43848H107.679V13.3359ZM130.141 0.241211V16H125.393V0.241211H130.141ZM122.353 13.3359H124.641V14.8721L123.513 16H120.172L117.604 13.4326V7.15918L120.172 4.5918H124.641V7.43848H122.353V13.3359ZM138.734 19.9746H134.18L139.959 4.5918H144.524L138.734 19.9746ZM131.107 4.5918H135.845L137.445 9.23242L135.318 15.0439L131.107 4.5918Z" fill="#5865F2"/>
</svg>
