<svg width="20" height="20" viewBox="0 0 20 20" fill="none" xmlns="http://www.w3.org/2000/svg">
<path fill-rule="evenodd" clip-rule="evenodd" d="M19.7586 10.6083L15.3083 17.3914C14.5334 18.5855 13.3708 16.7943 14.1457 15.5997L16.7369 11.6069C16.9534 11.2733 16.882 11.0064 16.5803 11.0064L7.60308 11.0064C7.14905 11.0064 6.78107 10.4394 6.78107 9.73968C6.78107 9.04 7.14905 8.47292 7.60308 8.47292L16.5803 8.47292C16.8816 8.47292 16.9521 8.20404 16.7369 7.87237L14.1457 3.8792C13.3708 2.68506 14.5334 0.893435 15.3083 2.08757L19.7562 8.82659C20.08 9.31724 20.0817 10.1159 19.7586 10.6083ZM12.6032 4.65802C12.6032 5.35963 12.2352 5.92839 11.7813 5.92839C11.3273 5.92839 10.9593 5.35963 10.9593 4.65802V3.38695C10.9593 2.91913 10.7143 2.54074 10.4099 2.54074L2.19332 2.54074C1.88932 2.54074 1.6439 2.91981 1.6439 3.3899L1.6439 16.0891C1.6439 16.5589 1.88916 16.9383 2.19332 16.9383H10.4099C10.7134 16.9383 10.9593 16.5587 10.9593 16.092V14.821C10.9593 14.1194 11.3273 13.5506 11.7813 13.5506C12.2352 13.5506 12.6032 14.1194 12.6032 14.821L12.6032 16.092C12.6032 17.9626 11.6209 19.479 10.4099 19.479H2.19332C0.981028 19.479 0 17.9618 0 16.0891L0 3.3899C0 1.51623 0.981661 0 2.19332 0L10.4099 0C11.6219 0 12.6032 1.51549 12.6032 3.38695V4.65802Z" fill="#A4A4A4"/>
</svg>
