<svg width="18" height="17" viewBox="0 0 18 17" xmlns="http://www.w3.org/2000/svg">
<path d="M8.99984 3.88574C6.15584 3.88574 3.83834 6.37746 3.82484 9.44231L3.37484 16.218C3.36134 16.422 3.42434 16.6163 3.55484 16.7669C3.68084 16.9126 3.86084 17 4.04984 17H13.9498C14.1388 17 14.3143 16.9175 14.4448 16.7669C14.5708 16.6212 14.6383 16.422 14.6248 16.218L14.1748 9.44231C14.1613 6.37746 11.8438 3.88574 8.99984 3.88574ZM5.17484 9.52488C5.17484 9.50546 5.17484 9.49088 5.17484 9.47146C5.17484 7.19346 6.88934 5.34288 8.99984 5.34288C11.1103 5.34288 12.8248 7.19346 12.8248 9.47146C12.8248 9.49088 12.8248 9.50546 12.8248 9.52488L13.0948 13.6H4.90484L5.17484 9.52488ZM4.77434 15.5429L4.80584 15.0572H13.1893L13.2208 15.5429H4.77434Z" />
<path d="M8.3252 0.728571V2.67143C8.3252 3.07457 8.6267 3.4 9.0002 3.4C9.3737 3.4 9.6752 3.07457 9.6752 2.67143V0.728571C9.6752 0.325429 9.3737 0 9.0002 0C8.6267 0 8.3252 0.325429 8.3252 0.728571Z" />
<path d="M2.475 8.98535H0.675C0.3015 8.98535 0 9.31078 0 9.71392C0 10.1171 0.3015 10.4425 0.675 10.4425H2.475C2.8485 10.4425 3.15 10.1171 3.15 9.71392C3.15 9.31078 2.8485 8.98535 2.475 8.98535Z" />
<path d="M17.3251 8.98535H15.5251C15.1516 8.98535 14.8501 9.31078 14.8501 9.71392C14.8501 10.1171 15.1516 10.4425 15.5251 10.4425H17.3251C17.6986 10.4425 18.0001 10.1171 18.0001 9.71392C18.0001 9.31078 17.6986 8.98535 17.3251 8.98535Z"/>
<path d="M13.1352 5.2507C13.2657 5.39155 13.4412 5.46441 13.6122 5.46441C13.7832 5.46441 13.9587 5.39155 14.0892 5.2507L15.3627 3.87613C15.6282 3.58955 15.6282 3.12813 15.3627 2.84641C15.0972 2.5647 14.6697 2.55984 14.4087 2.84641L13.1352 4.22098C12.8742 4.5027 12.8742 4.96413 13.1352 5.2507Z" />
<path d="M3.91039 5.25056C4.04089 5.39142 4.21639 5.46428 4.38739 5.46428C4.55839 5.46428 4.73389 5.39142 4.86439 5.25056C5.12989 4.96399 5.12989 4.50256 4.86439 4.22085L3.59089 2.84628C3.32539 2.5597 2.89789 2.5597 2.63689 2.84628C2.37589 3.13285 2.37139 3.59428 2.63689 3.87599L3.91039 5.25056Z"/>
</svg>
