<svg width="18" height="16" viewBox="0 0 18 16" fill="none" xmlns="http://www.w3.org/2000/svg">
<path d="M17.7563 0.20721C17.4454 -0.0690698 16.9407 -0.0690698 16.6298 0.20721L9 6.99849L3.18464 1.83655L1.35953 0.216655C1.0487 -0.0596242 0.543945 -0.0596242 0.233119 0.216655C-0.0777064 0.492935 -0.0777064 0.941593 0.233119 1.21787L2.05822 2.83777L7.87359 7.99971L0.243746 14.791C-0.0670797 15.0673 -0.0670797 15.5159 0.243746 15.7922C0.400487 15.9292 0.602391 16 0.806952 16C1.01151 16 1.21607 15.9315 1.37016 15.7922L9 9.00092L14.1725 13.5914L16.6405 15.7828C16.7972 15.9197 16.9991 15.9906 17.2037 15.9906C17.4082 15.9906 17.6128 15.9221 17.7669 15.7828C18.0777 15.5065 18.0777 15.0578 17.7669 14.7815L15.2989 12.5902L10.1264 7.99971L17.7563 1.20843C18.0671 0.932148 18.0671 0.483489 17.7563 0.20721Z" fill="#A4A4A4"/>
</svg>
