<svg width="12" height="12" viewBox="0 0 12 12" fill="none" xmlns="http://www.w3.org/2000/svg">
<path d="M11.8375 0.155407C11.6303 -0.0518024 11.2938 -0.0518024 11.0866 0.155407L6 5.24887L2.12309 1.37741L0.906354 0.162491C0.699137 -0.0447181 0.36263 -0.0447181 0.155413 0.162491C-0.0518043 0.369701 -0.0518043 0.706195 0.155413 0.913405L1.37215 2.12833L5.24906 5.99978L0.162497 11.0932C-0.0447198 11.3004 -0.0447198 11.6369 0.162497 11.8441C0.266992 11.9469 0.401594 12 0.537968 12C0.674341 12 0.810715 11.9486 0.913438 11.8441L6 6.75069L9.44831 10.1936L11.0936 11.8371C11.1981 11.9398 11.3327 11.9929 11.4691 11.9929C11.6055 11.9929 11.7419 11.9416 11.8446 11.8371C12.0518 11.6299 12.0518 11.2934 11.8446 11.0862L10.1992 9.44264L6.75094 5.99978L11.8375 0.90632C12.0447 0.699111 12.0447 0.362617 11.8375 0.155407Z" fill="#A4A4A4"/>
</svg>
