<svg width="155" height="112" viewBox="0 0 155 112" fill="none" xmlns="http://www.w3.org/2000/svg">
<path d="M78.4117 0H76.5881C75.5432 0 74.6023 0.263105 73.8346 0.766503L73.8091 0.752816L73.4863 1.02048C73.4717 1.03265 73.4571 1.04482 73.4425 1.05698L73.2967 1.17865C73.2821 1.19082 73.2656 1.20451 73.2511 1.21667L72.7988 1.59536L72.8371 1.6273C72.3065 2.24476 72.0293 2.98693 72.0293 3.8021V29.2047C72.0293 31.3004 74.0753 33.0068 76.5881 33.0068H78.4117C80.8825 33.0068 82.9705 31.2654 82.9705 29.2047V3.8021C82.9705 1.74136 80.8825 0 78.4117 0ZM79.3234 29.2047C79.3234 29.6108 78.8985 29.9651 78.4117 29.9651H76.5881C76.1012 29.9651 75.6764 29.6108 75.6764 29.2047V3.8021C75.6764 3.52683 75.7876 3.40364 75.8715 3.33216L76.0228 3.20593C76.1067 3.13597 76.2581 3.04168 76.5881 3.04168H78.4117C78.8985 3.04168 79.3234 3.39756 79.3234 3.8021V29.2047Z" fill="#8EA1E1"/>
<path d="M39.5761 65.3981V63.8773C39.5761 61.7801 37.5301 60.0752 35.0173 60.0752H4.55883C3.51212 60.0752 2.57118 60.3398 1.80347 60.8432L1.78159 60.831L1.53906 61.0318C1.49712 61.0653 1.45518 61.0987 1.41324 61.1337L0.771353 61.6721L0.809647 61.704C0.277176 62.3169 0 63.0591 0 63.8773V65.3981C0 67.4589 2.08794 69.2002 4.55883 69.2002H35.0173C37.4881 69.2002 39.5761 67.4589 39.5761 65.3981ZM3.64706 65.3981V63.8773C3.64706 63.602 3.7583 63.4788 3.83853 63.4104C3.89141 63.3678 3.9443 63.3237 3.98989 63.2811C4.07741 63.2096 4.22877 63.1169 4.55883 63.1169H35.0173C35.5041 63.1169 35.929 63.4712 35.929 63.8773V65.3981C35.929 65.8042 35.5041 66.1586 35.0173 66.1586H4.55883C4.07194 66.1586 3.64706 65.8027 3.64706 65.3981Z" fill="#8EA1E1"/>
<path d="M150.441 60.0752H119.985C118.945 60.0752 118.004 60.3383 117.235 60.8387L117.211 60.825L116.974 61.0212C116.93 61.0561 116.885 61.0926 116.841 61.1276L116.195 61.6645L116.237 61.701C115.705 62.3169 115.426 63.0606 115.426 63.8773V65.3981C115.426 67.4954 117.47 69.2002 119.985 69.2002H150.441C152.912 69.2002 155 67.4589 155 65.3981V63.8773C155 61.7801 152.956 60.0752 150.441 60.0752ZM151.353 65.3981C151.353 65.8042 150.928 66.1586 150.441 66.1586H119.985C119.498 66.1586 119.073 65.8042 119.073 65.3981V63.8773C119.073 63.6035 119.186 63.4788 119.283 63.3982C119.334 63.3556 119.419 63.2796 119.419 63.2796C119.527 63.1944 119.673 63.1184 119.985 63.1184H150.441C150.928 63.1184 151.353 63.4728 151.353 63.8788V65.3981Z" fill="#8EA1E1"/>
<path d="M43.5883 42.8087C44.4599 43.5326 45.5595 43.9174 46.7302 43.9174L46.8014 43.9189L46.9199 43.9174C48.0924 43.9174 49.1701 43.5342 50.0345 42.8087L51.3255 41.732C52.1862 41.0141 52.6604 40.059 52.6604 39.0431C52.6604 38.0272 52.1862 37.0721 51.3255 36.3543L29.7896 18.3916C28.1503 17.0244 24.9792 17.0244 23.3435 18.3916L22.0524 19.4684C20.2781 20.9497 20.2781 23.3617 22.0524 24.8446L43.5883 42.8087ZM24.6327 21.6204L25.9219 20.5451C26.0879 20.4068 26.3158 20.3307 26.5675 20.3307C26.8191 20.3307 27.0471 20.4068 27.213 20.5451L48.7507 38.5078C48.9167 38.6462 49.0097 38.8363 49.0097 39.0446C49.0097 39.253 48.9185 39.4446 48.7489 39.583L47.4615 40.6583C47.2901 40.8012 47.1442 40.8636 46.8798 40.8773H46.7084C46.5716 40.8773 46.402 40.8514 46.1722 40.6583L24.6363 22.6971C24.2899 22.4097 24.2899 21.9063 24.6327 21.6204Z" fill="#8EA1E1"/>
<path d="M50.0349 86.4628C48.3956 85.097 45.2281 85.097 43.5888 86.4628L22.0529 104.428C21.194 105.145 20.7217 106.1 20.7217 107.117C20.7217 108.135 21.1958 109.09 22.0565 109.808L23.3421 110.88C24.1773 111.578 25.2495 111.979 26.2324 111.979C26.2616 111.976 26.3163 111.984 26.3783 111.987L26.577 111.999L26.6773 111.989C27.8499 111.989 28.9257 111.605 29.7919 110.88L51.3278 92.9157C52.1885 92.1994 52.6626 91.2458 52.6626 90.2284C52.6626 89.2109 52.1885 88.2558 51.3278 87.5365L50.0349 86.4628ZM48.7475 90.7637L27.2116 108.728C27.0202 108.888 26.8597 108.947 26.6883 108.95L26.4585 108.944C26.3199 108.944 26.1485 108.918 25.9206 108.726L24.6313 107.651C24.2885 107.365 24.2885 106.862 24.6313 106.576L46.1691 88.6117C46.3313 88.4748 46.5611 88.3988 46.8128 88.3988C47.0644 88.3988 47.2942 88.4748 47.4583 88.6117L48.7493 89.6869C48.9153 89.8269 49.0083 90.017 49.0083 90.2253C49.0065 90.4367 48.9153 90.6268 48.7475 90.7637Z" fill="#8EA1E1"/>
<path d="M132.945 19.4681L131.654 18.3898C130.914 17.7754 130.022 17.4058 129.056 17.31L127.624 17.2842V17.3313C126.727 17.4545 125.903 17.815 125.21 18.3929L103.67 36.354C102.815 37.0657 102.345 38.0208 102.345 39.0428C102.345 40.0633 102.815 41.0184 103.67 41.7332L104.963 42.8084C105.817 43.5202 106.962 43.9126 108.187 43.9126C109.413 43.9126 110.558 43.5202 111.411 42.8084L132.953 24.8443C134.72 23.3599 134.718 20.9494 132.945 19.4681ZM130.367 22.6953L108.831 40.6565C108.525 40.9104 107.846 40.912 107.538 40.6549L106.247 39.5812C105.904 39.2953 105.904 38.7919 106.247 38.506L127.785 20.5433C128.015 20.3517 128.186 20.3259 128.323 20.3259V19.5654L128.354 20.3259H128.538C128.675 20.3259 128.848 20.3517 129.076 20.5433L130.367 21.6201C130.533 21.757 130.626 21.9486 130.626 22.1569C130.626 22.3653 130.533 22.5569 130.367 22.6953Z" fill="#8EA1E1"/>
</svg>
