<svg width="174" height="103" viewBox="0 0 174 103" fill="none" xmlns="http://www.w3.org/2000/svg">
<g filter="url(#filter0_f_159_8567)">
<ellipse cx="89.5" cy="39" rx="3.5" ry="3" fill="#FF7EF2"/>
</g>
<path d="M88.9976 44C70.2251 44 55 55.9175 55 70.6192C55 79.7035 60.8145 87.7214 69.6877 92.5267L67.015 100.794C66.91 101.118 66.9125 101.463 67.0221 101.785C67.1317 102.107 67.3436 102.392 67.6308 102.604C67.918 102.816 68.2677 102.946 68.6356 102.976C69.0035 103.007 69.373 102.937 69.6974 102.776L82.0397 96.6896C84.3372 97.0547 86.6656 97.2338 88.9976 97.225C107.775 97.225 123 85.3075 123 70.6058C123 55.9041 107.775 44 88.9976 44ZM92.6035 88.2077C80.3882 88.2077 70.4792 80.4486 70.4792 70.8825C70.4792 61.3163 80.3833 53.5572 92.6035 53.5572C104.824 53.5572 114.733 61.3119 114.733 70.8825C114.733 80.4531 104.824 88.2077 92.6035 88.2077Z" fill="#5865F2"/>
<path d="M87.3951 72.6805C88.6445 72.6805 89.6573 71.7556 89.6573 70.6147C89.6573 69.4737 88.6445 68.5488 87.3951 68.5488C86.1457 68.5488 85.1328 69.4737 85.1328 70.6147C85.1328 71.7556 86.1457 72.6805 87.3951 72.6805Z" fill="#5865F2"/>
<path d="M94.6412 75.8528C95.8906 75.8528 96.9034 74.9279 96.9034 73.787C96.9034 72.6461 95.8906 71.7212 94.6412 71.7212C93.3918 71.7212 92.3789 72.6461 92.3789 73.787C92.3789 74.9279 93.3918 75.8528 94.6412 75.8528Z" fill="#5865F2"/>
<path d="M101.887 72.6805C103.137 72.6805 104.15 71.7556 104.15 70.6147C104.15 69.4737 103.137 68.5488 101.887 68.5488C100.638 68.5488 99.625 69.4737 99.625 70.6147C99.625 71.7556 100.638 72.6805 101.887 72.6805Z" fill="#5865F2"/>
<path d="M122.847 48.7094C130.156 48.1694 129.522 51.1549 130.309 55.5121L132.435 72.4497C132.435 76.9595 135.665 78.7166 128.363 79.2561L122.847 79.2561L120.206 64.6955L117.921 49.4576L122.847 48.7056L122.847 48.7094ZM47.0968 54.3061C39.7944 54.8456 41.2572 57.6896 42.044 62.0469L44.7025 77.9605C45.49 82.3216 45.3106 85.3961 52.613 84.8566L58.5271 83.7426L56.4003 69.2126L54.2734 54.3061L47.0968 54.3061ZM76.8002 5.6744C31.4817 9.02267 3.942 33.1808 8.93001 60.8061L11.0324 72.4497L23.8324 71.504L21.7052 59.7229C17.3571 35.6415 47.0164 19.5229 78.8688 17.1308C110.735 14.8152 145.357 26.1844 149.706 50.2697L151.833 62.0469L164.633 61.1012L162.53 49.4576C157.542 21.8323 122.119 2.32613 76.8002 5.6744ZM86.2664 94.0917C86.636 96.1385 89.7264 97.5936 93.1568 97.3401L112.536 95.9083L111.157 88.2707L91.7777 89.7025C88.3473 89.956 85.8969 92.0448 86.2664 94.0917ZM153.199 69.6855C155.496 82.3324 141.198 88.0247 117.921 89.7445L118.625 93.6435C143.963 91.7715 162.327 84.2464 159.599 69.2126L153.199 69.6855Z" fill="#E5E85B"/>
<path d="M41.6124 71.4546C43.6413 84.3099 42.2249 86.8447 31.9988 87.5051C22.0033 87.5051 11.9007 86.4202 6.05185 73.8355C6.05185 61.9311 18.2813 57.1693 27.2561 55.933C37.4821 55.2726 39.5834 58.5993 41.6124 71.4546Z" fill="#E5E85B"/>
<rect width="6.37141" height="12.9701" transform="matrix(0.999003 -0.0446516 0.108585 0.994087 3.22852 66.8511)" fill="#E5E85B"/>
<path d="M135.562 63.3827C133.378 50.5378 134.764 47.9961 144.982 47.2853C154.977 47.236 165.092 48.2712 171.092 60.8266C171.236 72.7307 159.064 77.5526 150.104 78.8331C139.887 79.5439 137.745 76.2276 135.562 63.3827Z" fill="#E5E85B"/>
<rect width="6.36928" height="12.9806" transform="matrix(-0.99877 0.0495897 -0.120456 -0.992719 174 67.7969)" fill="#E5E85B"/>
<defs>
<filter id="filter0_f_159_8567" x="82" y="32" width="15" height="14" filterUnits="userSpaceOnUse" color-interpolation-filters="sRGB">
<feFlood flood-opacity="0" result="BackgroundImageFix"/>
<feBlend mode="normal" in="SourceGraphic" in2="BackgroundImageFix" result="shape"/>
<feGaussianBlur stdDeviation="2" result="effect1_foregroundBlur_159_8567"/>
</filter>
</defs>
</svg>
