<svg width="68" height="59" viewBox="0 0 68 59" fill="none" xmlns="http://www.w3.org/2000/svg">
<path d="M33.9976 0C15.2251 0 0 11.9175 0 26.6192C0 35.7035 5.81448 43.7214 14.6877 48.5267L12.015 56.7945C11.91 57.1179 11.9125 57.4625 12.0221 57.7846C12.1317 58.1068 12.3436 58.392 12.6308 58.6041C12.918 58.8162 13.2677 58.9457 13.6356 58.9762C14.0035 59.0068 14.373 58.9369 14.6974 58.7755L27.0397 52.6896C29.3372 53.0547 31.6656 53.2338 33.9976 53.225C52.7749 53.225 68 41.3075 68 26.6058C68 11.9041 52.7749 0 33.9976 0ZM37.6035 44.2077C25.3882 44.2077 15.4792 36.4486 15.4792 26.8825C15.4792 17.3163 25.3833 9.55722 37.6035 9.55722C49.8237 9.55722 59.7327 17.3119 59.7327 26.8825C59.7327 36.4531 49.8237 44.2077 37.6035 44.2077Z" fill="#5865F2"/>
<path d="M32.3951 28.6805C33.6445 28.6805 34.6573 27.7556 34.6573 26.6147C34.6573 25.4737 33.6445 24.5488 32.3951 24.5488C31.1457 24.5488 30.1328 25.4737 30.1328 26.6147C30.1328 27.7556 31.1457 28.6805 32.3951 28.6805Z" fill="#5865F2"/>
<path d="M39.6412 31.8528C40.8906 31.8528 41.9034 30.9279 41.9034 29.787C41.9034 28.6461 40.8906 27.7212 39.6412 27.7212C38.3918 27.7212 37.3789 28.6461 37.3789 29.787C37.3789 30.9279 38.3918 31.8528 39.6412 31.8528Z" fill="#5865F2"/>
<path d="M46.8873 28.6805C48.1367 28.6805 49.1495 27.7556 49.1495 26.6147C49.1495 25.4737 48.1367 24.5488 46.8873 24.5488C45.6379 24.5488 44.625 25.4737 44.625 26.6147C44.625 27.7556 45.6379 28.6805 46.8873 28.6805Z" fill="#5865F2"/>
</svg>
