<svg width="174" height="103" viewBox="0 0 174 103" fill="none" xmlns="http://www.w3.org/2000/svg">
<path d="M122.847 48.7094C130.156 48.1694 129.522 51.1549 130.309 55.5121L132.435 72.4497C132.435 76.9595 135.665 78.7166 128.363 79.2561L122.847 79.2561L120.206 64.6955L117.921 49.4576L122.847 48.7056L122.847 48.7094ZM47.0968 54.3061C39.7944 54.8456 41.2572 57.6896 42.044 62.0469L44.7025 77.9605C45.49 82.3216 45.3106 85.3961 52.613 84.8566L58.5271 83.7426L56.4003 69.2126L54.2734 54.3061L47.0968 54.3061ZM76.8002 5.6744C31.4817 9.02267 3.942 33.1808 8.93001 60.8061L11.0324 72.4497L23.8324 71.504L21.7052 59.7229C17.3571 35.6415 47.0164 19.5229 78.8688 17.1308C110.735 14.8152 145.357 26.1844 149.706 50.2697L151.833 62.0469L164.633 61.1012L162.53 49.4576C157.542 21.8323 122.119 2.32613 76.8002 5.6744ZM86.2664 94.0917C86.636 96.1385 89.7264 97.5936 93.1568 97.3401L112.536 95.9083L111.157 88.2707L91.7777 89.7025C88.3473 89.956 85.8969 92.0448 86.2664 94.0917ZM153.199 69.6855C155.496 82.3324 141.198 88.0247 117.921 89.7445L118.625 93.6435C143.963 91.7715 162.327 84.2464 159.599 69.2126L153.199 69.6855Z" fill="#E5E85B"/>
<path d="M41.6124 71.4546C43.6413 84.3099 42.2249 86.8447 31.9988 87.5051C22.0033 87.5051 11.9007 86.4202 6.05185 73.8355C6.05185 61.9311 18.2813 57.1693 27.2561 55.933C37.4821 55.2726 39.5834 58.5993 41.6124 71.4546Z" fill="#E5E85B"/>
<rect width="6.37141" height="12.9701" transform="matrix(0.999003 -0.0446516 0.108585 0.994087 3.22852 66.8511)" fill="#E5E85B"/>
<path d="M135.562 63.3827C133.378 50.5378 134.764 47.9961 144.982 47.2853C154.977 47.236 165.092 48.2712 171.092 60.8266C171.236 72.7307 159.064 77.5526 150.104 78.8331C139.887 79.5439 137.745 76.2276 135.562 63.3827Z" fill="#E5E85B"/>
<rect width="6.36928" height="12.9806" transform="matrix(-0.99877 0.0495897 -0.120456 -0.992719 174 67.7969)" fill="#E5E85B"/>
</svg>
