<svg width="322" height="204" viewBox="0 0 322 204" fill="none" xmlns="http://www.w3.org/2000/svg">
<rect x="0.25" y="0.25" width="321.5" height="203.5" rx="9.75" fill="#F2F2F2" stroke="#DBDBDB" stroke-width="0.5"/>
<g filter="url(#filter0_f_516_3827)">
<ellipse cx="160.659" cy="91.7143" rx="2.01852" ry="1.74603" fill="white"/>
</g>
<path d="M162.182 97.8789C153.285 97.8789 146.068 103.805 146.068 111.115C146.068 115.633 148.824 119.619 153.03 122.009L151.763 126.12C151.713 126.281 151.715 126.452 151.766 126.612C151.818 126.773 151.919 126.914 152.055 127.02C152.191 127.125 152.357 127.19 152.531 127.205C152.706 127.22 152.881 127.185 153.035 127.105L158.884 124.079C159.973 124.26 161.077 124.35 162.182 124.345C171.082 124.345 178.298 118.419 178.298 111.109C178.298 103.798 171.082 97.8789 162.182 97.8789ZM163.891 119.861C158.102 119.861 153.405 116.003 153.405 111.246C153.405 106.489 158.099 102.631 163.891 102.631C169.683 102.631 174.38 106.487 174.38 111.246C174.38 116.005 169.683 119.861 163.891 119.861Z" fill="white"/>
<path d="M161.422 112.14C162.015 112.14 162.495 111.68 162.495 111.113C162.495 110.546 162.015 110.086 161.422 110.086C160.83 110.086 160.35 110.546 160.35 111.113C160.35 111.68 160.83 112.14 161.422 112.14Z" fill="white"/>
<path d="M164.856 113.718C165.449 113.718 165.929 113.258 165.929 112.691C165.929 112.123 165.449 111.664 164.856 111.664C164.264 111.664 163.784 112.123 163.784 112.691C163.784 113.258 164.264 113.718 164.856 113.718Z" fill="white"/>
<path d="M168.291 112.14C168.883 112.14 169.363 111.68 169.363 111.113C169.363 110.546 168.883 110.086 168.291 110.086C167.699 110.086 167.219 110.546 167.219 111.113C167.219 111.68 167.699 112.14 168.291 112.14Z" fill="white"/>
<path d="M178.226 100.221C181.69 99.9523 181.39 101.437 181.762 103.603L182.771 112.026C182.771 114.268 184.301 115.142 180.84 115.41L178.226 115.41L176.974 108.17L175.891 100.593L178.226 100.219L178.226 100.221ZM142.323 103.004C138.861 103.272 139.555 104.686 139.928 106.853L141.188 114.766C141.561 116.934 141.476 118.463 144.937 118.195L147.74 117.641L146.732 110.416L145.724 103.004L142.323 103.004ZM156.401 78.8215C134.921 80.4865 121.868 92.4991 124.233 106.236L125.229 112.026L131.296 111.555L130.288 105.697C128.227 93.7227 142.284 85.7077 157.382 84.5183C172.485 83.3668 188.895 89.0202 190.956 100.997L191.964 106.853L198.031 106.383L197.035 100.593C194.671 86.8561 177.881 77.1566 156.401 78.8215ZM160.888 122.787C161.063 123.805 162.528 124.529 164.154 124.402L173.339 123.691L172.685 119.893L163.5 120.605C161.874 120.731 160.713 121.769 160.888 122.787ZM192.612 110.651C193.7 116.94 186.924 119.77 175.891 120.626L176.225 122.564C188.234 121.633 196.938 117.892 195.645 110.416L192.612 110.651Z" fill="white"/>
<path d="M139.723 111.531C140.685 117.923 140.013 119.184 135.166 119.512C130.429 119.512 125.641 118.973 122.868 112.715C122.868 106.795 128.665 104.428 132.919 103.813C137.765 103.484 138.761 105.139 139.723 111.531Z" fill="white"/>
<rect width="3.02017" height="6.44591" transform="matrix(0.998902 -0.0468401 0.103557 0.994623 121.53 109.242)" fill="white"/>
<path d="M184.252 107.517C183.217 101.13 183.874 99.8663 188.717 99.5129C193.455 99.4884 198.249 100.003 201.093 106.246C201.161 112.166 195.392 114.563 191.145 115.2C186.302 115.554 185.287 113.905 184.252 107.517Z" fill="white"/>
<rect width="3.01922" height="6.45033" transform="matrix(-0.998646 0.0520191 -0.114892 -0.993378 202.471 109.712)" fill="white"/>
<defs>
<filter id="filter0_f_516_3827" x="154.64" y="85.9683" width="12.0371" height="11.4922" filterUnits="userSpaceOnUse" color-interpolation-filters="sRGB">
<feFlood flood-opacity="0" result="BackgroundImageFix"/>
<feBlend mode="normal" in="SourceGraphic" in2="BackgroundImageFix" result="shape"/>
<feGaussianBlur stdDeviation="2" result="effect1_foregroundBlur_516_3827"/>
</filter>
</defs>
</svg>
